<svg width="192" height="24" viewBox="0 0 192 24" fill="none" xmlns="http://www.w3.org/2000/svg">
<path d="M17.056 23.032H10.848V7.768L8.768 9.368L6.688 7.768V23.032H0.48L1.984 21.816L1.92 2.104L0.48 0.952H6.688V2.104L8.768 3.768L10.848 2.104V0.952H17.056L15.616 2.104L15.552 21.816L17.056 23.032ZM34.5873 23.032H18.0113L19.5473 21.784V2.2L18.0113 0.952H34.5873L33.0193 2.2V21.784L34.5873 23.032ZM28.2833 19.832V3.864H24.3153V19.832H28.2833ZM52.1505 23.032H45.8465V12.088H45.8145V11.768L41.8785 12.728V15.832L41.8145 15.896H41.8785V23.032H35.5425L37.1105 21.784V2.2L35.5425 0.952H52.1505L50.5825 2.2V7.544L48.5665 9.432L50.5825 11.352V21.784L52.1505 23.032ZM41.8785 10.168L45.8145 9.208V6.52H45.8465V3.864H41.8785V10.168ZM69.681 23.032H63.409V15.928L59.377 12.12V23.032H53.105L54.641 21.784V2.168L53.105 0.952H59.377V6.52L63.409 10.36V0.952H69.681L68.145 2.168V21.784L69.681 23.032ZM78.2523 23.032H70.6363L72.0443 21.56V2.424L70.6363 0.952H78.2523L76.8123 2.424V21.56L78.2523 23.032ZM95.7748 23.032H89.5028V15.928L85.4708 12.12V23.032H79.1988L80.7348 21.784V2.168L79.1988 0.952H85.4708V6.52L89.5028 10.36V0.952H95.7748L94.2388 2.168V21.784L95.7748 23.032ZM113.338 23.032H96.73L98.234 21.816V2.136L96.73 0.952H113.338L111.77 2.2V6.904L107.002 8.088V3.864H103.002V19.832H107.002V14.04L105.114 11.544H111.77V21.784L113.338 23.032ZM139.151 23.032H122.543L124.079 21.816V11.512L128.815 16.088V19.832H132.815V14.968C126.991 9.336 129.839 12.152 124.079 6.616V2.2L122.543 1.016H139.151L137.583 2.264V3.928H137.647L132.847 8.088L132.815 3.928H128.815V5.72H128.879C134.735 11.384 131.535 8.312 137.583 14.008V21.784L139.151 23.032ZM150.793 23.096H146.025V23.032H144.585L146.025 21.56V3.928H141.641V2.232L140.105 1.016H156.713L155.177 2.232V3.928H150.793V21.56L152.201 23.032H150.793V23.096ZM174.244 23.032H167.94V11.576L163.972 12.568V23.032H157.668L159.204 21.784V2.392L161.028 0.952H170.884L172.676 2.392V21.784L174.244 23.032ZM163.972 10.008L167.94 9.016V3.864H163.972V10.008ZM191.807 23.032H185.503V12.088H185.471V11.768L181.535 12.728V15.832L181.471 15.896H181.535V23.032H175.199L176.767 21.784V2.2L175.199 0.952H191.807L190.239 2.2V7.544L188.223 9.432L190.239 11.352V21.784L191.807 23.032ZM181.535 10.168L185.471 9.208V6.52H185.503V3.864H181.535V10.168Z" fill="url(#paint0_linear_18_8)"/>
<defs>
<linearGradient id="paint0_linear_18_8" x1="-53.0382" y1="12.6667" x2="248.248" y2="12.6667" gradientUnits="userSpaceOnUse">
<stop offset="0.25" stop-color="#FED74C"/>
<stop offset="0.529265" stop-color="#FFF47B"/>
<stop offset="0.845" stop-color="#FE6921"/>
</linearGradient>
</defs>
</svg>
